HIERARCHY
ROOT root
{
	OFFSET	0	13.1	24.9
	CHANNELS 6  Xposition Yposition Zposition Xrotation Yrotation Zrotation
	JOINT spine_1
	{
		OFFSET	0	9.99999	0
		CHANNELS 3  Xrotation Yrotation Zrotation
		JOINT spine_2
		{
			OFFSET	0	112	-10
			CHANNELS 3  Xrotation Yrotation Zrotation
			JOINT spine_3
			{
				OFFSET	0	206.5	19.3
				CHANNELS 3  Xrotation Yrotation Zrotation
				JOINT spine_4
				{
					OFFSET	0	110.4	14.6
					CHANNELS 3  Xrotation Yrotation Zrotation
					JOINT neck_1
					{
						OFFSET	0	71.8	-50.3
						CHANNELS 3  Xrotation Yrotation Zrotation
						JOINT neck_2
						{
							OFFSET	0	86.2	-25.8
							CHANNELS 3  Xrotation Yrotation Zrotation
							JOINT head_ee
							{
								OFFSET	0	179.8	-8.7
								CHANNELS 3  Xrotation Yrotation Zrotation
								End Site
								{
									OFFSET	1	0	0
								}
							}
						}
					}
					JOINT left_clavicle
					{
						OFFSET	-43.2	22.4	-70.8
						CHANNELS 3  Xrotation Yrotation Zrotation
						JOINT left_shoulder
						{
							OFFSET	-93.9	-5.79999	48.7
							CHANNELS 3  Xrotation Yrotation Zrotation
							JOINT left_elbow
							{
								OFFSET	-291.4	-30.8	15.2
								CHANNELS 3  Xrotation Yrotation Zrotation
								JOINT left_lowarm_twist
								{
									OFFSET	-110.7	-3.89999	13.6
									CHANNELS 3  Xrotation Yrotation Zrotation
									JOINT left_hand
									{
										OFFSET	-110.7	-3.89999	13.6
										CHANNELS 3  Xrotation Yrotation Zrotation
										JOINT left_ee
										{
											OFFSET	-80.8	-5.10001	12.1
											CHANNELS 3  Xrotation Yrotation Zrotation
											End Site
											{
												OFFSET	1	0	0
											}
										}
									}
								}
							}
						}
					}
					JOINT right_clavicle
					{
						OFFSET	43.2	22.4	-70.8
						CHANNELS 3  Xrotation Yrotation Zrotation
						JOINT right_shoulder
						{
							OFFSET	93.9	-5.79999	48.7
							CHANNELS 3  Xrotation Yrotation Zrotation
							JOINT right_elbow
							{
								OFFSET	291.4	-30.8	15.2
								CHANNELS 3  Xrotation Yrotation Zrotation
								JOINT right_lowarm_twist
								{
									OFFSET	110.7	-3.89999	13.6
									CHANNELS 3  Xrotation Yrotation Zrotation
									JOINT right_hand
									{
										OFFSET	110.7	-3.89999	13.6
										CHANNELS 3  Xrotation Yrotation Zrotation
										JOINT right_ee
										{
											OFFSET	80.8	-5.10001	12.1
											CHANNELS 3  Xrotation Yrotation Zrotation
											End Site
											{
												OFFSET	1	0	0
											}
										}
									}
								}
							}
						}
					}
				}
			}
		}
	}
	JOINT left_hip
	{
		OFFSET	-82.8	-127.5	0.300001
		CHANNELS 3  Xrotation Yrotation Zrotation
		JOINT left_knee
		{
			OFFSET	-28.2	-396.7	2.2
			CHANNELS 3  Xrotation Yrotation Zrotation
			JOINT left_ankle
			{
				OFFSET	-11.7	-411.3	35.4
				CHANNELS 3  Xrotation Yrotation Zrotation
				JOINT left_toes
				{
					OFFSET	0	-60	-88.6
					CHANNELS 3  Xrotation Yrotation Zrotation
					JOINT left_foot_ee
					{
						OFFSET	-22.5	-16.5	-42.2
						CHANNELS 3  Xrotation Yrotation Zrotation
						End Site
						{
							OFFSET	1	0	0
						}
					}
				}
			}
		}
	}
	JOINT right_hip
	{
		OFFSET	82.8	-127.5	0.300001
		CHANNELS 3  Xrotation Yrotation Zrotation
		JOINT right_knee
		{
			OFFSET	28.2	-396.7	2.2
			CHANNELS 3  Xrotation Yrotation Zrotation
			JOINT right_ankle
			{
				OFFSET	11.7	-411.3	35.4
				CHANNELS 3  Xrotation Yrotation Zrotation
				JOINT right_toes
				{
					OFFSET	0	-60	-88.6
					CHANNELS 3  Xrotation Yrotation Zrotation
					JOINT right_foot_ee
					{
						OFFSET	22.5	-16.5	-42.2
						CHANNELS 3  Xrotation Yrotation Zrotation
						End Site
						{
							OFFSET	1	0	0
						}
					}
				}
			}
		}
	}
}
MOTION
Frames: 6
Frame Time: 0.02
836.365499572 610.893 -1851.8040513 10.7906250202 9.2558254559 10.6304634372 -3.16935 -0.483613 -3.16827 -3.16381 -0.281133 -3.19259 -3.14049 0.570221 -3.15385 -3.15436 0.0652404 -3.20426 -2.17265 7.39994 7.83217 -2.00627 7.17359 9.1936 -0.0 0.0 -0.0 7.55688 -0.716865 14.7057 6.97708 1.14007 48.1702 1.84264 -42.3853 0.714493 15.0617 0.282701 -1.8977 2.41129 5.54699 18.4615 -0.0 0.0 -0.0 9.12688 12.7298 -17.8577 -18.2412 18.9446 -56.3126 0.690842 18.8922 -0.114941 29.1236 -0.09261 3.67938 1.85547 5.75928 -10.1248 0.0 0.0 0.0 -0.980032 12.3298 -19.0172 -2.4216 0.0921047 0.360194 7.21722 4.69061 -1.03713 23.205 -0.0 -0.0 -0.0 0.0 -0.0 17.2241 27.5195 -27.5541 -41.7502 0.581855 -6.24154 21.6366 4.72661 2.99347 26.9672 -0.0 -0.0 0.0 0.0 0.0 
814.072826766 616.31 -1867.41190586 12.7110004954 7.33908215036 11.3800305687 -3.66491 -0.331791 -2.82571 -3.66048 -0.151386 -2.84108 -3.64659 0.627329 -2.77514 -3.65729 0.18136 -2.83933 -1.25444 7.62694 4.58074 -1.16314 10.0361 5.7752 -0.0 0.0 -0.0 7.23018 -0.970304 14.0511 8.76609 -0.0561459 44.8395 1.9345 -43.7753 0.77724 12.8257 0.272438 -1.61231 2.16854 1.91127 15.4027 -0.0 0.0 -0.0 8.13113 12.4499 -15.7055 -16.6972 21.5793 -58.047 0.761362 20.6642 -0.138806 28.1012 -0.121129 3.55189 1.2668 3.09127 -7.2276 0.0 0.0 0.0 -7.81999 13.3619 -18.2522 3.35332 -0.152544 -0.491842 8.21281 6.32361 -1.17491 19.3507 -0.0 -0.0 -0.0 0.0 -0.0 28.2902 35.351 -34.6941 -42.572 0.638449 -6.35453 21.0372 -4.2177 2.86188 25.3194 -0.0 -0.0 0.0 0.0 0.0 
805.014356252 617.041 -1866.81061996 12.3039427991 7.20700023275 11.2768945567 -3.60701 -0.350113 -2.81704 -3.60261 -0.170222 -2.83359 -3.58785 0.604296 -2.77368 -3.59855 0.158846 -2.83425 -2.2184 6.99068 4.45266 -2.14267 9.12806 5.60227 -0.0 0.0 -0.0 7.23904 -0.971296 14.0689 9.91203 -0.351648 44.7478 1.89136 -43.1305 0.747574 9.6319 0.238488 -1.20583 1.01324 4.71904 8.67113 -0.0 0.0 -0.0 8.03109 12.2755 -15.4968 -16.6226 24.8344 -58.0262 0.730788 19.9008 -0.128207 27.1469 -0.145688 3.43247 1.21562 3.6769 -6.63791 0.0 0.0 0.0 -8.19629 14.6659 -16.2578 4.22812 -0.197062 -0.618645 9.18348 10.1119 -1.30993 16.9297 -0.0 -0.0 -0.0 0.0 -0.0 29.9415 33.7044 -34.8055 -40.8137 0.519345 -6.11181 19.9539 -6.56553 2.72511 26.6486 -0.0 -0.0 0.0 0.0 0.0 
805.686667457 617.041 -1867.66928654 12.2984078537 7.00336329942 11.3216425697 -3.60701 -0.350113 -2.81704 -3.60261 -0.170222 -2.83359 -3.58785 0.604296 -2.77368 -3.59855 0.158846 -2.83425 -2.2184 6.99068 4.45266 -2.14267 9.12806 5.60227 -0.0 0.0 -0.0 7.23904 -0.971296 14.0689 9.91203 -0.351648 44.7478 1.89136 -43.1305 0.747574 9.6319 0.238488 -1.20583 1.01324 4.71904 8.67113 -0.0 0.0 -0.0 8.03109 12.2755 -15.4968 -16.6226 24.8344 -58.0262 0.730788 19.9008 -0.128207 27.1469 -0.145688 3.43247 1.21562 3.6769 -6.63791 0.0 0.0 0.0 -8.19629 14.6659 -16.2578 4.22812 -0.197062 -0.618645 9.18348 10.1119 -1.30993 16.9297 -0.0 -0.0 -0.0 0.0 -0.0 29.9415 33.7044 -34.8055 -40.8137 0.519345 -6.11181 19.9539 -6.56553 2.72511 26.6486 -0.0 -0.0 0.0 0.0 0.0 
791.243607819 619.585 -1874.08421902 11.5860164656 9.09812572066 11.6238263636 -3.4866 -0.395253 -2.90177 -3.48194 -0.209886 -2.92101 -3.46456 0.583624 -2.86984 -3.47603 0.123264 -2.92595 -2.64106 7.20768 4.64082 -2.56171 9.43308 5.84635 -0.0 0.0 -0.0 7.71171 -0.937069 15.0185 9.98139 -1.25356 43.4099 2.06358 -45.6245 0.868046 9.3258 0.234046 -1.16698 1.61554 3.28059 12.1534 -0.0 0.0 -0.0 8.85762 13.8686 -17.224 -15.1781 22.5658 -58.1813 0.709055 19.3536 -0.120907 30.2169 -0.059602 3.81512 0.906431 1.54388 -5.4318 0.0 0.0 0.0 -10.3878 14.4992 -15.5158 8.9297 -0.469221 -1.28778 8.37693 6.26058 -1.19778 16.8251 -0.0 -0.0 -0.0 0.0 -0.0 31.899 33.1677 -33.9594 -34.1315 0.136222 -5.15964 18.6502 -4.29119 2.56538 24.6363 -0.0 -0.0 0.0 0.0 0.0 
792.658347101 619.585 -1875.9167274 11.5727983007 8.68578641181 11.7093405846 -3.4866 -0.395253 -2.90177 -3.48194 -0.209886 -2.92101 -3.46456 0.583624 -2.86984 -3.47603 0.123264 -2.92595 -2.64106 7.20768 4.64082 -2.56171 9.43308 5.84635 -0.0 0.0 -0.0 7.71171 -0.937069 15.0185 9.98139 -1.25356 43.4099 2.06358 -45.6245 0.868046 9.3258 0.234046 -1.16698 1.61554 3.28059 12.1534 -0.0 0.0 -0.0 8.85762 13.8686 -17.224 -15.1781 22.5658 -58.1813 0.709055 19.3536 -0.120907 30.2169 -0.059602 3.81512 0.906431 1.54388 -5.4318 0.0 0.0 0.0 -10.3878 14.4992 -15.5158 8.9297 -0.469221 -1.28778 8.37693 6.26058 -1.19778 16.8251 -0.0 -0.0 -0.0 0.0 -0.0 31.899 33.1677 -33.9594 -34.1315 0.136222 -5.15964 18.6502 -4.29119 2.56538 24.6363 -0.0 -0.0 0.0 0.0 0.0 
